<svg width="48" height="48" viewBox="0 0 48 48" xmlns="http://www.w3.org/2000/svg"><title>user4</title><g id="user4" fill="none" fill-rule="evenodd"><g id="icons/48/orange/user" fill="#F06400"><path d="M22.353 23.12c.61.518 1.208.75 1.928.75 1.052 0 1.496-.263 1.84-.655 1.285-1.363 1.75-4.404 1.75-6.01 0-1.98-1.61-3.59-3.59-3.59-1.978 0-3.59 1.61-3.59 3.59 0 1.147.302 4.42 1.663 5.914m1.928 3.75c-1.458 0-2.79-.52-3.956-1.54a1.747 1.747 0 0 1-.098-.093c-2.463-2.586-2.535-7.482-2.535-8.032a6.597 6.597 0 0 1 6.59-6.59 6.597 6.597 0 0 1 6.59 6.59c0 .548-.07 5.423-2.53 8.027-.95 1.087-2.29 1.637-4.06 1.637" id="Fill-10"/><path d="M24 43.5c-.172 0-.344-.002-.517-.007C12.93 43.22 4.415 34.4 4.5 23.836a19.55 19.55 0 0 1 6.48-14.352c4.127-3.706 9.465-5.44 15.023-4.883 9.09.91 16.4 8.156 17.38 17.234.567 5.24-.93 10.363-4.216 14.424a1.5 1.5 0 0 1-2.333-1.887c2.78-3.435 4.046-7.773 3.566-12.215-.83-7.675-7.01-13.802-14.695-14.57-4.716-.473-9.23.996-12.723 4.13a16.542 16.542 0 0 0-5.48 12.145c-.074 8.94 7.13 16.403 16.06 16.635 2.1.043 4.174-.284 6.132-1.004.95-.347 1.587-1.286 1.587-2.333v-1.41c0-2.62-3.696-3.798-6.32-3.798h-1.358c-2.593 0-5.656 1.078-6.224 3.077a1.507 1.507 0 0 1-1.853 1.034 1.5 1.5 0 0 1-1.032-1.853c1.026-3.612 5.44-5.258 9.11-5.258h1.357c4.52 0 9.32 2.382 9.32 6.798v1.41c0 2.298-1.426 4.368-3.55 5.15A19.43 19.43 0 0 1 24 43.5" id="Fill-12"/></g></g></svg>